# AST/ASF file generated using VICON BodyLanguage
# -----------------------------------------------
:version 1.10
:name VICON
:units
  mass 1.0
  length 0.45
  angle deg
:documentation
   .ast/.asf automatically generated from VICON data using
   VICON BodyBuilder and BodyLanguage model FoxedUp or BRILLIANT.MOD
:root
   order TX TY TZ RX RY RZ
   axis XYZ
   position 0 0 0  
   orientation 0 0 0 
:bonedata
  begin
     id 1 
     name lhipjoint
     direction 0.630082 -0.636569 0.44472 
     length 2.82754 
     axis 0 0 0  XYZ
  end
  begin
     id 2 
     name lfemur
     direction 0.34202 -0.939693 0  
     length 7.26371  
     axis 0 0 20  XYZ
    dof rx ry rz
    limits (-160.0 20.0)
           (-70.0 70.0)
           (-60.0 70.0)
  end
  begin
     id 3 
     name ltibia
     direction 0.34202 -0.939693 0   
     length 7.88616   
     axis 0 0 20   XYZ
    dof rx
    limits (-10.0 170.0)
  end
  begin
     id 4 
     name lfoot
     direction 0.0603448 -0.165796 0.984312   
     length 1.77861   
     axis -90 7.62852e-016 20   XYZ
    dof rx rz
    limits (-45.0 90.0)
           (-70.0 20.0)
  end
  begin
     id 5 
     name ltoes
     direction 1.53577e-011 -4.21876e-011 1   
     length 0.902235   
     axis -90 7.62852e-016 20   XYZ
    dof rx
    limits (-90.0 20.0)
  end
  begin
     id 6 
     name rhipjoint
     direction -0.656778 -0.61817 0.431866   
     length 2.9117  
     axis 0 0 0  XYZ 
  end
  begin
     id 7 
     name rfemur
     direction -0.34202 -0.939693 0   
     length 6.81603   
     axis 0 0 -20   XYZ
    dof rx ry rz
    limits (-160.0 20.0)
           (-70.0 70.0)
           (-70.0 60.0)
  end
  begin
     id 8 
     name rtibia
     direction -0.34202 -0.939693 0   
     length 8.05997   
     axis 0 0 -20   XYZ
    dof rx
    limits (-10.0 170.0)
 end
 begin
     id 9 
     name rfoot
     direction -0.0862404 -0.236944 0.967688   
     length 1.84899  
     axis -90 -7.62852e-016 -20   XYZ
    dof rx rz
    limits (-45.0 90.0)
           (-20.0 70.0)
  end
  begin
     id 10 
     name rtoes
     direction -1.53561e-011 -4.21798e-011 1   
     length 0.931579   
     axis -90 -7.62852e-016 -20   XYZ
    dof rx
    limits (-90.0 20.0)
  end
  begin
     id 11 
     name lowerback
     direction -0.0110203 0.991769 -0.127564   
     length 2.05686   
     axis 0 0 0   XYZ
    dof rx ry rz
    limits (-20.0 45.0)
           (-30.0 30.0)
           (-30.0 30.0)
  end
  begin
     id 12 
     name upperback
     direction 0.0109719 0.99993 -0.00432479   
     length 2.06234   
     axis 0 0 0   XYZ
    dof rx ry rz
    limits (-20.0 45.0)
           (-30.0 30.0)
           (-30.0 30.0)
  end
  begin
     id 13 
     name thorax
     direction 0.0173308 0.998351 0.0547306   
     length 2.09856   
     axis 0 0 0   XYZ
    dof rx ry rz
    limits (-20.0 45.0)
           (-30.0 30.0)
           (-30.0 30.0)
  end
  begin
     id 14 
     name lowerneck
     direction -0.0311736 0.989033 0.144366   
     length 1.98151   
     axis 0 0 0   XYZ
    dof rx ry rz
    limits (-20.0 45.0)
           (-30.0 30.0)
           (-30.0 30.0)
  end
  begin
     id 15 
     name upperneck
     direction 0.0421057 0.975772 -0.214698   
     length 2.01457   
     axis 0 0 0   XYZ
    dof rx ry rz
    limits (-20.0 45.0)
           (-30.0 30.0)
           (-30.0 30.0)
  end
  begin
     id 16
     name head
     direction 0.0136911 0.995958 -0.0887718  
     length 2.03562  
     axis 0 0 0   XYZ
    dof rx ry rz
    limits (-20.0 45.0)
           (-30.0 30.0)
           (-30.0 30.0)
  end
  begin
     id 17 
     name lclavicle
     direction 0.915335 0.396201 0.0720134  
     length 4.16217  
     axis 0 0 0   XYZ
    dof ry rz
    limits (-20.0 10.0)
           (0.0 20.0)
  end
  begin
     id 18 
     name lhumerus
     direction 1 -4.48965e-011 6.383e-018   
     length 4.93042   
     axis -180 -30 -90   XYZ
    dof rx ry rz
    limits (-60.0 90.0)
           (-90.0 90.0)
           (-90.0 90.0)
  end
  begin
     id 19
     name lradius
     direction 1 -4.48972e-011 8.8689e-027   
     length 3.68177   
     axis -180 -30 -90   XYZ
    dof rx
    limits (-10.0 170.0)
  end
  begin
     id 20
     name lwrist
     direction 1 -4.48953e-011 1.17971e-026   
     length 1.84089   
     axis -7.69454e-015 90 90   XYZ
    dof ry
    limits (-180.0 0.0)
 end
  begin
     id 21 
     name lhand
     direction 1 -4.49027e-011 2.35802e-026   
     length 0.721479   
     axis -1.50533e-014 90 90   XYZ
    dof rx rz
    limits (-90.0 90.0)
           (-45.0 45.0)
  end
  begin
     id 22 
     name lfingers
     direction 1 -4.48915e-011 4.72027e-026   
     length 0.581675   
     axis -3.01059e-014 90 90   XYZ
    dof rx
    limits (0.0 90.0)
  end
  begin
     id 23
     name lthumb
     direction 0.707107 -6.34948e-011 0.707107   
     length 0.835172   
     axis -90 45 -5.12164e-014   XYZ
    dof rx rz
    limits (-45.0 45.0)
           (-45.0 45.0)
  end
  begin
     id 24 
     name rclavicle
     direction -0.882781 0.469197 0.0234974   
     length 3.95647  
     axis 0 0 0   XYZ 
    dof ry rz
    limits (-10.0 20.0)
           (-20.0 0.0)
  end
  begin
     id 25 
     name rhumerus
     direction -1 -4.48965e-011 -1.54906e-018  
     length 5.07905   
     axis -180 30 90   XYZ
    dof rx ry rz
    limits (-90.0 60.0)
           (-90.0 90.0)
           (-90.0 90.0)
  end
  begin
     id 26 
     name rradius
     direction -1 -4.48972e-011 5.47489e-027   
     length 3.54394   
     axis -180 30 90   XYZ
    dof rx
    limits (-10.0 170.0)
  end
  begin
     id 27 
     name rwrist
     direction -1 -4.48955e-011 1.17969e-026   
     length 1.77197   
     axis -7.69454e-015 -90 -90   XYZ
    dof ry
    limits (-180.0 0.0)
  end
  begin
     id 28
     name rhand
     direction -1 -4.48982e-011 2.35888e-026   
     length 0.681156   
     axis -1.50533e-014 -90 -90   XYZ
    dof rx rz
    limits (-90.0 90.0)
           (-45.0 45.0)
  end
  begin
     id 29
     name rfingers
     direction -1 -4.48955e-011 4.71877e-026   
     length 0.549165   
     axis -3.01059e-014 -90 -90   XYZ
    dof rx
    limits (0.0 90.0)
  end
  begin
     id 30
     name rthumb
     direction -0.707107 -6.3491e-011 0.707107   
     length 0.788495   
     axis -90 -45 5.12164e-014   XYZ
    dof rx rz
    limits (-45.0 45.0)
           (-45.0 45.0)
  end
:hierarchy
  begin
    root lhipjoint rhipjoint lowerback
    lhipjoint lfemur
    lfemur ltibia
    ltibia lfoot
    lfoot ltoes
    rhipjoint rfemur
    rfemur rtibia
    rtibia rfoot
    rfoot rtoes
    lowerback upperback
    upperback thorax
    thorax lowerneck lclavicle rclavicle
    lowerneck upperneck
    upperneck head
    lclavicle lhumerus
    lhumerus lradius
    lradius lwrist
    lwrist lhand lthumb
    lhand lfingers
    rclavicle rhumerus
    rhumerus rradius
    rradius rwrist
    rwrist rhand rthumb
    rhand rfingers
  end

#!OML:ASF H:\Bending\Project 1\Capture day 1\Session 1\Subject.ASF
:FULLY-SPECIFIED
:DEGREES
267
root -8.91413 18.0382 -16.4129 135.229 91.0127 129.243
lowerback 5.47305 0.370577 0.346658
upperback -2.62542 0.722016 2.90534
thorax -5.8399 0.422016 2.75619
lowerneck -24.2099 -3.11988 -5.2297
upperneck 30.5767 -2.72686 2.11651
head 14.7729 -1.31915 1.27246
rclavicle -4.52235e-015 -1.59028e-015
rhumerus 3.6069 15.4688 -83.285
rradius 75.3778
rwrist -2.34291
rhand -20.764 -34.6315
rfingers 7.12502
rthumb 5.60224 -64.5374
lclavicle -4.52235e-015 -1.59028e-015
lhumerus 1.34187 -19.8145 88.7143
lradius 76.8789
lwrist 56.8814
lhand -34.3066 24.5399
lfingers 7.12502
lthumb -7.47548 54.3878
rfemur 3.27746 -6.36257 15.8492
rtibia 2.06736e-014
rfoot -9.35709 -12.4618
rtoes 1.7433
lfemur -9.30852 -14.3641 -13.8104
ltibia 22.2856
lfoot -24.0916 19.038
ltoes -27.0989
268
root -8.91392 18.0397 -16.4093 134.83 91.0781 128.756
lowerback 5.48524 0.357515 0.32566
upperback -2.60392 0.705731 2.95245
thorax -5.82458 0.415846 2.81893
lowerneck -24.2724 -3.09167 -5.24215
upperneck 30.6576 -2.65968 2.07595
head 14.8196 -1.29765 1.27155
rclavicle -5.46658e-016 -1.74931e-014
rhumerus 4.23587 15.6636 -83.2473
rradius 74.293
rwrist -2.63588
rhand -20.8504 -34.6388
rfingers 7.12502
rthumb 5.51874 -64.5469
lclavicle -5.46658e-016 -1.74931e-014
lhumerus 2.10078 -19.707 88.5259
lradius 75.5384
lwrist 56.8476
lhand -34.3192 24.2258
lfingers 7.12502
lthumb -7.48771 54.0733
rfemur 3.16998 -6.32817 15.9354
rtibia -1.59028e-015
rfoot -9.3403 -12.4517
rtoes 1.86087
lfemur -9.4577 -14.1202 -13.7068
ltibia 22.3677
lfoot -23.9954 18.9207
ltoes -27.2944
269
root -8.91315 18.0416 -16.407 134.198 91.1216 128.039
lowerback 5.49777 0.340695 0.337018
upperback -2.57022 0.685032 2.97853
thorax -5.79558 0.405442 2.84176
lowerneck -24.3641 -3.07978 -5.28544
upperneck 30.7158 -2.61352 2.06378
head 14.8647 -1.28505 1.28296
rclavicle -2.88238e-015 -1.35174e-014
rhumerus 4.82951 15.805 -83.2242
rradius 73.2589
rwrist -2.80846
rhand -21.2601 -34.6356
rfingers 7.12502
rthumb 5.12322 -64.5537
lclavicle -2.88238e-015 -1.35174e-014
lhumerus 2.84983 -19.6273 88.3081
lradius 74.2695
lwrist 56.826
lhand -34.3255 23.8806
lfingers 7.12502
lthumb -7.49379 53.7278
rfemur 3.07105 -6.31294 16.0018
rtibia -1.59028e-015
rfoot -9.31606 -12.4498
rtoes 1.82396
lfemur -9.60243 -13.9638 -13.6246
ltibia 22.4477
lfoot -23.9458 18.8388
ltoes -27.3845
270
root -8.91153 18.044 -16.4054 133.602 91.1427 127.365
lowerback 5.51755 0.326516 0.37771
upperback -2.52402 0.667642 2.97403
thorax -5.75686 0.39449 2.81554
lowerneck -24.4772 -3.08263 -5.33956
upperneck 30.7395 -2.59504 2.07919
head 14.9007 -1.28191 1.30154
rclavicle 3.37934e-015 3.89618e-014
rhumerus 5.35705 15.8524 -83.215
rradius 72.3389
rwrist -2.75887
rhand -21.6202 -34.8633
rfingers 7.12502
rthumb 4.77553 -64.7895
lclavicle 3.37934e-015 3.89618e-014
lhumerus 3.57353 -19.5904 88.0658
lradius 73.1167
lwrist 56.9254
lhand -34.417 23.5177
lfingers 7.12502
lthumb -7.58205 53.3618
rfemur 2.98493 -6.31295 16.045
rtibia 3.18055e-015
rfoot -9.29038 -12.4559
rtoes 1.68917
lfemur -9.73231 -13.8843 -13.5671
ltibia 22.5149
lfoot -23.9205 18.7977
ltoes -27.4619
271
root -8.90903 18.0467 -16.4041 132.85 91.1462 126.538
lowerback 5.55045 0.31717 0.435225
upperback -2.47113 0.656337 2.9454
thorax -5.71834 0.385183 2.75389
lowerneck -24.5936 -3.09121 -5.37353
upperneck 30.7176 -2.59615 2.09704
head 14.9173 -1.28476 1.31315
rclavicle 3.97569e-016 2.38542e-015
rhumerus 5.79786 15.7946 -83.2168
rradius 71.5657
rwrist -2.46223
rhand -21.5289 -34.9683
rfingers 7.12502
rthumb 4.8637 -64.8925
lclavicle 3.97569e-016 2.38542e-015
lhumerus 4.25594 -19.5894 87.8167
lradius 72.1012
lwrist 57.1687
lhand -34.5801 23.1738
lfingers 7.12502
lthumb -7.73947 53.0122
rfemur 2.90876 -6.32746 16.0732
rtibia 0
rfoot -9.27111 -12.466
rtoes 1.54629
lfemur -9.85256 -13.8474 -13.5233
ltibia 22.5698
lfoot -23.8923 18.7822
ltoes -27.6124
272
root -8.90594 18.0497 -16.4029 131.533 91.1385 125.142
lowerback 5.59925 0.310837 0.492979
upperback -2.42008 0.649044 2.90999
thorax -5.69097 0.377783 2.68463
lowerneck -24.6937 -3.09413 -5.36023
upperneck 30.6437 -2.59929 2.08028
head 14.905 -1.28836 1.30129
rclavicle -1.98785e-016 -2.78299e-014
rhumerus 6.15111 15.6556 -83.2244
rradius 70.9308
rwrist -1.983
rhand -21.3723 -35.0696
rfingers 7.12502
rthumb 5.01489 -64.9903
lclavicle -1.98785e-016 -2.78299e-014
lhumerus 4.8864 -19.6022 87.5835
lradius 71.2123
lwrist 57.4813
lhand -34.7077 22.8954
lfingers 7.12502
lthumb -7.86267 52.7292
rfemur 2.83365 -6.35847 16.099
rtibia 0
rfoot -9.26309 -12.4745
rtoes 1.4742
lfemur -9.9782 -13.8142 -13.478
ltibia 22.6199
lfoot -23.8404 18.7689
ltoes -27.882
273
root -8.90269 18.0526 -16.4021 129.356 91.1256 122.874
lowerback 5.66198 0.304056 0.538242
upperback -2.3776 0.641693 2.88626
thorax -5.68095 0.371351 2.63477
lowerneck -24.7661 -3.08368 -5.2903
upperneck 30.5207 -2.5868 1.99935
head 14.8614 -1.28848 1.25579
rclavicle 3.32964e-015 0
rhumerus 6.43659 15.4825 -83.2314
rradius 70.3957
rwrist -1.4443
rhand -21.206 -35.1898
rfingers 7.12502
rthumb 5.1754 -65.1066
lclavicle 3.32964e-015 0
lhumerus 5.46291 -19.6047 87.3841
lradius 70.4131
lwrist 57.7359
lhand -34.6707 22.7175
lfingers 7.12502
lthumb -7.8269 52.5526
rfemur 2.74818 -6.40688 16.1318
rtibia 3.18055e-015
rfoot -9.2644 -12.4773
rtoes 1.49596
lfemur -10.1236 -13.758 -13.4203
ltibia 22.6713
lfoot -23.7567 18.7404
ltoes -28.2638
274
root -8.89965 18.0556 -16.4021 126.47 91.1127 119.879
lowerback 5.73213 0.294561 0.56571
upperback -2.34526 0.631476 2.88448
thorax -5.68629 0.364958 2.61829
lowerneck -24.8139 -3.05921 -5.17805
upperneck 30.3637 -2.54939 1.84982
head 14.7942 -1.28348 1.17953
rclavicle -1.2921e-015 -2.22639e-014
rhumerus 6.68704 15.3244 -83.2344
rradius 69.9174
rwrist -0.966811
rhand -21.0756 -35.3371
rfingers 7.12502
rthumb 5.30138 -65.2508
lclavicle -1.2921e-015 -2.22639e-014
lhumerus 5.99104 -19.5814 87.2216
lradius 69.661
lwrist 57.8256
lhand -34.3959 22.6374
lfingers 7.12502
lthumb -7.56169 52.4822
rfemur 2.643 -6.46803 16.1726
rtibia -1.59028e-014
rfoot -9.26681 -12.4739
rtoes 1.56859
lfemur -10.2931 -13.6731 -13.3509
ltibia 22.7235
lfoot -23.6474 18.6928
ltoes -28.6983
275
root -8.89692 18.0584 -16.4028 123.583 91.1017 116.864
lowerback 5.80046 0.282773 0.575557
upperback -2.31976 0.618449 2.90246
thorax -5.69817 0.358478 2.6328
lowerneck -24.8545 -3.02581 -5.05402
upperneck 30.199 -2.48857 1.65559
head 14.7206 -1.27388 1.08773
rclavicle -1.93815e-015 -1.66979e-014
rhumerus 6.93455 15.2096 -83.2379
rradius 69.4763
rwrist -0.608675
rhand -20.9907 -35.5061
rfingers 7.12502
rthumb 5.38333 -65.4178
lclavicle -1.93815e-015 -1.66979e-014
lhumerus 6.47906 -19.5283 87.083
lradius 68.9307
lwrist 57.7223
lhand -33.9089 22.6118
lfingers 7.12502
lthumb -7.09163 52.4729
rfemur 2.51368 -6.53023 16.2137
rtibia 1.74931e-014
rfoot -9.25979 -12.4683
rtoes 1.60417
lfemur -10.4781 -13.5713 -13.2811
ltibia 22.7672
lfoot -23.5294 18.6356
ltoes -29.0948
276
root -8.89424 18.0613 -16.4038 121.669 91.0919 114.807
lowerback 5.85805 0.271555 0.57076
upperback -2.29609 0.605396 2.92853
thorax -5.7061 0.35275 2.66408
lowerneck -24.9119 -2.99016 -4.95073
upperneck 30.0581 -2.41388 1.46027
head 14.6618 -1.26084 1.00225
rclavicle 6.95746e-016 7.95139e-016
rhumerus 7.19865 15.1346 -83.2552
rradius 69.0879
rwrist -0.342979
rhand -20.9265 -35.6748
rfingers 7.12502
rthumb 5.44536 -65.5848
lclavicle 6.95746e-016 7.95139e-016
lhumerus 6.93312 -19.4498 86.944
lradius 68.2283
lwrist 57.4906
lhand -33.3223 22.5832
lfingers 7.12502
lthumb -6.52536 52.4626
rfemur 2.36164 -6.57772 16.2452
rtibia 7.95139e-015
rfoot -9.23631 -12.4664
rtoes 1.51636
lfemur -10.6615 -13.471 -13.2245
ltibia 22.789
lfoot -23.4227 18.583
ltoes -29.3633
277
root -8.89106 18.0642 -16.4045 121.531 91.0818 114.515
lowerback 5.8991 0.264488 0.55198
upperback -2.2717 0.595814 2.94828
thorax -5.704 0.348999 2.69625
lowerneck -25.0056 -2.95601 -4.8859
upperneck 29.9688 -2.3369 1.30725
head 14.6355 -1.24474 0.941587
rclavicle 5.76476e-015 2.22639e-014
rhumerus 7.4811 15.0697 -83.3041
rradius 68.7912
rwrist -0.0855309
rhand -20.8405 -35.8203
rfingers 7.12502
rthumb 5.52835 -65.7281
lclavicle 5.76476e-015 2.22639e-014
lhumerus 7.35529 -19.3532 86.7795
lradius 67.5873
lwrist 57.2484
lhand -32.7725 22.5212
lfingers 7.12502
lthumb -5.99453 52.4164
rfemur 2.19289 -6.59736 16.2608
rtibia -1.11319e-014
rfoot -9.19785 -12.4724
rtoes 1.2738
lfemur -10.8263 -13.3865 -13.1897
ltibia 22.7773
lfoot -23.3443 18.5446
ltoes -29.4375
